<svg width="10" height="16" viewBox="0 0 10 16" fill="none" xmlns="http://www.w3.org/2000/svg">
<path d="M9.56238 0.449553C9.56238 0.331717 9.51869 0.218708 9.44093 0.135386C9.36316 0.0520641 9.25768 0.00525411 9.1477 0.00525411H7.07431C6.03025 -0.050469 5.00805 0.338826 4.23104 1.08808C3.45404 1.83733 2.9854 2.88564 2.92752 4.00394V6.40315H0.854132C0.744152 6.40315 0.638677 6.44996 0.56091 6.53329C0.483142 6.61661 0.439453 6.72962 0.439453 6.84745V9.1578C0.439453 9.27564 0.483142 9.38865 0.56091 9.47197C0.638677 9.55529 0.744152 9.6021 0.854132 9.6021H2.92752V15.5557C2.92752 15.6735 2.97121 15.7865 3.04898 15.8699C3.12675 15.9532 3.23222 16 3.3422 16H5.83027C5.94025 16 6.04573 15.9532 6.1235 15.8699C6.20126 15.7865 6.24495 15.6735 6.24495 15.5557V9.6021H8.41787C8.51009 9.60352 8.60011 9.57196 8.67371 9.51242C8.74731 9.45287 8.80029 9.36874 8.82425 9.27332L9.42139 6.96297C9.43789 6.89732 9.44011 6.82849 9.42787 6.76178C9.41564 6.69507 9.38928 6.63226 9.35082 6.57818C9.31237 6.5241 9.26284 6.4802 9.20606 6.44986C9.14928 6.41951 9.08675 6.40353 9.0233 6.40315H6.24495V4.00394C6.26558 3.78399 6.36199 3.58018 6.51534 3.4323C6.6687 3.28442 6.86799 3.2031 7.07431 3.2042H9.1477C9.25768 3.2042 9.36316 3.15739 9.44093 3.07407C9.51869 2.99075 9.56238 2.87774 9.56238 2.7599V0.449553Z" fill="#1E1E29"/>
</svg>
