<svg width="16" height="16" viewBox="0 0 16 16" fill="none" xmlns="http://www.w3.org/2000/svg">
<path d="M7.99781 5.3322C6.54894 5.3322 5.36655 6.53101 5.36655 8C5.36655 9.46899 6.54894 10.6678 7.99781 10.6678C9.44668 10.6678 10.6291 9.46899 10.6291 8C10.6291 6.53101 9.44668 5.3322 7.99781 5.3322ZM15.8896 8C15.8896 6.89525 15.8995 5.80051 15.8383 4.69777C15.7771 3.4169 15.4889 2.28014 14.5651 1.3435C13.6393 0.404868 12.5201 0.114672 11.2568 0.0526304C10.1672 -0.0094115 9.08742 0.000595291 7.99978 0.000595291C6.91017 0.000595291 5.83043 -0.0094115 4.74279 0.0526304C3.47947 0.114672 2.35828 0.40687 1.43447 1.3435C0.508697 2.28214 0.222476 3.4169 0.161284 4.69777C0.100092 5.80252 0.109962 6.89725 0.109962 8C0.109962 9.10275 0.100092 10.1995 0.161284 11.3022C0.222476 12.5831 0.510671 13.7199 1.43447 14.6565C2.36025 15.5951 3.47947 15.8853 4.74279 15.9474C5.8324 16.0094 6.91215 15.9994 7.99978 15.9994C9.0894 15.9994 10.1691 16.0094 11.2568 15.9474C12.5201 15.8853 13.6413 15.5931 14.5651 14.6565C15.4909 13.7179 15.7771 12.5831 15.8383 11.3022C15.9015 10.1995 15.8896 9.10475 15.8896 8ZM7.99781 12.1048C5.75739 12.1048 3.94927 10.2715 3.94927 8C3.94927 5.72847 5.75739 3.89523 7.99781 3.89523C10.2382 3.89523 12.0464 5.72847 12.0464 8C12.0464 10.2715 10.2382 12.1048 7.99781 12.1048ZM12.2122 4.68576C11.6891 4.68576 11.2667 4.25747 11.2667 3.72711C11.2667 3.19675 11.6891 2.76847 12.2122 2.76847C12.7353 2.76847 13.1577 3.19675 13.1577 3.72711C13.1578 3.85305 13.1335 3.97778 13.086 4.09416C13.0386 4.21054 12.9689 4.31628 12.8811 4.40533C12.7933 4.49438 12.689 4.56499 12.5742 4.61311C12.4594 4.66123 12.3364 4.68592 12.2122 4.68576Z" fill="#1E1E29"/>
</svg>
