<svg width="16" height="10" viewBox="0 0 16 10" fill="none" xmlns="http://www.w3.org/2000/svg">
<path d="M15.6354 0.892101C15.7453 0.520821 15.6354 0.247559 15.1066 0.247559H13.3572C12.9116 0.247559 12.7067 0.482208 12.5968 0.743589C12.5968 0.743589 11.7057 2.91484 10.4463 4.32273C10.0394 4.72965 9.85229 4.86034 9.62952 4.86034C9.51962 4.86034 9.35032 4.72965 9.35032 4.35837V0.892101C9.35032 0.446565 9.22557 0.247559 8.85726 0.247559H6.10682C5.82761 0.247559 5.66128 0.455475 5.66128 0.648541C5.66128 1.07032 6.29097 1.16833 6.35632 2.35643V4.9346C6.35632 5.49895 6.25533 5.6029 6.03256 5.6029C5.43851 5.6029 3.99497 3.42275 3.13955 0.927744C2.96727 0.443595 2.79797 0.247559 2.34946 0.247559H0.599989C0.100988 0.247559 0 0.482208 0 0.743589C0 1.20695 0.594048 3.50888 2.76529 6.55041C4.2118 8.62661 6.24939 9.75233 8.10282 9.75233C9.21666 9.75233 9.35329 9.50283 9.35329 9.07215C9.35329 7.08802 9.2523 6.9009 9.81071 6.9009C10.0691 6.9009 10.5147 7.03159 11.5542 8.03256C12.7423 9.22066 12.9384 9.75233 13.6037 9.75233H15.3532C15.8522 9.75233 16.1047 9.50283 15.9591 9.00977C15.6264 7.97316 13.378 5.84052 13.277 5.69795C13.0186 5.36528 13.0928 5.21677 13.277 4.91975C13.2799 4.91678 15.4156 1.91089 15.6354 0.892101Z" fill="#1E1E29"/>
</svg>
